<svg width="18" height="18" viewBox="0 0 18 18" fill="none" xmlns="http://www.w3.org/2000/svg">
<path d="M17.2171 7.62133L10.0172 0.421427C9.74714 0.151582 9.38102 0 8.99927 0C8.61753 0 8.25141 0.151582 7.98139 0.421427L0.781479 7.62133C0.647114 7.7547 0.540604 7.91345 0.468142 8.08835C0.395679 8.26325 0.35871 8.45081 0.359384 8.64012V17.28C0.359384 17.471 0.43524 17.6541 0.570265 17.7891C0.705289 17.9241 0.888421 18 1.07937 18H6.8393C7.03025 18 7.21339 17.9241 7.34841 17.7891C7.48344 17.6541 7.55929 17.471 7.55929 17.28V12.2401H10.4393V17.28C10.4393 17.471 10.5151 17.6541 10.6501 17.7891C10.7852 17.9241 10.9683 18 11.1592 18H16.9192C17.1101 18 17.2933 17.9241 17.4283 17.7891C17.5633 17.6541 17.6392 17.471 17.6392 17.28V8.64012C17.6398 8.45081 17.6029 8.26325 17.5304 8.08835C17.4579 7.91345 17.3514 7.7547 17.2171 7.62133ZM16.1992 16.56H11.8792V11.5201C11.8792 11.3291 11.8034 11.146 11.6684 11.011C11.5333 10.8759 11.3502 10.8001 11.1592 10.8001H6.8393C6.64835 10.8001 6.46522 10.8759 6.33019 11.011C6.19517 11.146 6.11931 11.3291 6.11931 11.5201V16.56H1.79937V8.64012L8.99927 1.44021L16.1992 8.64012V16.56Z" fill="black"/>
</svg>
