<svg width="19" height="20" viewBox="0 0 19 20" fill="none" xmlns="http://www.w3.org/2000/svg">
<path d="M6.5649 10.5601L10.5232 14.5184C10.5968 14.592 10.6841 14.6503 10.7802 14.6901C10.8763 14.73 10.9793 14.7504 11.0833 14.7504C11.1874 14.7504 11.2904 14.73 11.3865 14.6901C11.4826 14.6503 11.5699 14.592 11.6434 14.5184C11.717 14.4449 11.7753 14.3576 11.8151 14.2615C11.855 14.1654 11.8754 14.0624 11.8754 13.9583C11.8754 13.8543 11.855 13.7513 11.8151 13.6552C11.7753 13.5591 11.717 13.4718 11.6434 13.3982L9.03588 10.7917H18.2083C18.4183 10.7917 18.6197 10.7083 18.7681 10.5598C18.9166 10.4113 19 10.21 19 10C19 9.79004 18.9166 9.58867 18.7681 9.44021C18.6197 9.29174 18.4183 9.20833 18.2083 9.20833H9.03588L11.6434 6.60177C11.792 6.45322 11.8754 6.25175 11.8754 6.04167C11.8754 5.83159 11.792 5.63011 11.6434 5.48156C11.4949 5.33301 11.2934 5.24956 11.0833 5.24956C10.8733 5.24956 10.6718 5.33301 10.5232 5.48156L6.5649 9.4399C6.49129 9.51342 6.4329 9.60073 6.39306 9.69684C6.35322 9.79295 6.33271 9.89596 6.33271 10C6.33271 10.104 6.35322 10.2071 6.39306 10.3032C6.4329 10.3993 6.49129 10.4866 6.5649 10.5601ZM1.58333 0.5H7.125C7.33496 0.5 7.53633 0.583408 7.68479 0.731874C7.83326 0.88034 7.91667 1.0817 7.91667 1.29167C7.91667 1.50163 7.83326 1.70299 7.68479 1.85146C7.53633 1.99993 7.33496 2.08333 7.125 2.08333H1.58333V17.9167H7.125C7.33496 17.9167 7.53633 18.0001 7.68479 18.1485C7.83326 18.297 7.91667 18.4984 7.91667 18.7083C7.91667 18.9183 7.83326 19.1197 7.68479 19.2681C7.53633 19.4166 7.33496 19.5 7.125 19.5H1.58333C1.16341 19.5 0.760679 19.3332 0.463747 19.0363C0.166815 18.7393 0 18.3366 0 17.9167V2.08333C0 1.66341 0.166815 1.26068 0.463747 0.963748C0.760679 0.666815 1.16341 0.5 1.58333 0.5Z" fill="black" fill-opacity="0.8"/>
</svg>
