<svg width="19" height="14" viewBox="0 0 19 14" fill="none" xmlns="http://www.w3.org/2000/svg">
<path d="M18.9998 8.25132C18.9998 8.41708 18.934 8.57606 18.8167 8.69327C18.6995 8.81048 18.5406 8.87632 18.3748 8.87632H17.1248V10.1263C17.1248 10.2921 17.059 10.4511 16.9417 10.5683C16.8245 10.6855 16.6656 10.7513 16.4998 10.7513C16.334 10.7513 16.1751 10.6855 16.0579 10.5683C15.9406 10.4511 15.8748 10.2921 15.8748 10.1263V8.87632H14.6248C14.459 8.87632 14.3001 8.81048 14.1829 8.69327C14.0656 8.57606 13.9998 8.41708 13.9998 8.25132C13.9998 8.08556 14.0656 7.92659 14.1829 7.80938C14.3001 7.69217 14.459 7.62632 14.6248 7.62632H15.8748V6.37632C15.8748 6.21056 15.9406 6.05159 16.0579 5.93438C16.1751 5.81717 16.334 5.75132 16.4998 5.75132C16.6656 5.75132 16.8245 5.81717 16.9417 5.93438C17.059 6.05159 17.1248 6.21056 17.1248 6.37632V7.62632H18.3748C18.5406 7.62632 18.6995 7.69217 18.8167 7.80938C18.934 7.92659 18.9998 8.08556 18.9998 8.25132ZM14.4787 12.849C14.5854 12.976 14.6373 13.1402 14.6229 13.3055C14.6086 13.4707 14.5292 13.6235 14.4021 13.7302C14.2751 13.8369 14.1109 13.8888 13.9457 13.8745C13.7804 13.8601 13.6276 13.7807 13.5209 13.6537C11.949 11.7818 9.78808 10.7513 7.4373 10.7513C5.08652 10.7513 2.92558 11.7818 1.3537 13.6537C1.247 13.7806 1.09424 13.8599 0.929049 13.8742C0.763856 13.8885 0.599754 13.8365 0.472844 13.7298C0.345934 13.6231 0.266611 13.4704 0.252326 13.3052C0.238041 13.14 0.289964 12.9759 0.396672 12.849C1.56386 11.4599 3.01542 10.4732 4.6287 9.94507C3.64894 9.33484 2.89458 8.42212 2.47975 7.34498C2.06491 6.26784 2.01218 5.0849 2.32952 3.97512C2.64687 2.86534 3.31702 1.88911 4.2386 1.19412C5.16018 0.499131 6.28304 0.123199 7.4373 0.123199C8.59156 0.123199 9.71442 0.499131 10.636 1.19412C11.5576 1.88911 12.2277 2.86534 12.5451 3.97512C12.8624 5.0849 12.8097 6.26784 12.3948 7.34498C11.98 8.42212 11.2257 9.33484 10.2459 9.94507C11.8592 10.4732 13.3107 11.4599 14.4787 12.849ZM7.4373 9.50132C8.24078 9.50132 9.02623 9.26306 9.6943 8.81667C10.3624 8.37028 10.8831 7.7358 11.1906 6.99347C11.498 6.25115 11.5785 5.43432 11.4217 4.64627C11.265 3.85822 10.8781 3.13435 10.3099 2.5662C9.74177 1.99805 9.0179 1.61114 8.22985 1.45438C7.4418 1.29763 6.62497 1.37808 5.88265 1.68556C5.14032 1.99304 4.50585 2.51375 4.05945 3.18182C3.61306 3.84989 3.3748 4.63534 3.3748 5.43882C3.37604 6.51588 3.80445 7.54848 4.56605 8.31007C5.32764 9.07167 6.36024 9.50008 7.4373 9.50132Z" fill="black"/>
</svg>
